<svg width="50" height="50" viewBox="0 0 50 50" fill="none" xmlns="http://www.w3.org/2000/svg">
<path d="M0 50L5.07002 35.5143C3.12295 31.9866 2.09697 28.0041 2.09697 23.9516C2.09697 17.5539 4.58828 11.5391 9.11221 7.01533C13.6361 2.4916 19.6508 0 26.0485 0C32.4463 0 38.4609 2.49131 42.9848 7.01523C47.5086 11.5392 50 17.5538 50 23.9515C50 30.3491 47.5087 36.364 42.9848 40.8877C38.4609 45.4115 32.4462 47.9029 26.0485 47.9029C21.9958 47.9029 18.0135 46.8771 14.4858 44.9299L0 50Z" fill="#86F28B"/>
<path d="M0 50L14.4856 44.93C18.0134 46.877 21.9958 47.903 26.0484 47.903C32.4461 47.903 38.4609 45.4116 42.9847 40.8878C47.5084 36.364 50 30.3492 50 23.9515C50 17.5537 47.5087 11.5391 42.9848 7.01523L0 50Z" fill="#66E26F"/>
<path d="M20.6072 29.3928C26.334 35.1195 32.8333 37.905 35.124 35.6143L37.8891 32.8492C38.4617 32.2766 38.4617 31.3481 37.8891 30.7754L34.4327 27.3191C33.86 26.7464 32.9315 26.7464 32.3589 27.3191L30.285 29.3929C26.0383 27.3813 22.6188 23.9617 20.6072 19.7151L22.6811 17.6412C23.2537 17.0686 23.2537 16.14 22.6811 15.5674L19.2247 12.111C18.652 11.5384 17.7235 11.5384 17.1509 12.111L14.3858 14.8761C12.095 17.1667 14.8805 23.666 20.6072 29.3928Z" fill="white"/>
<path d="M37.8891 30.7754L34.4328 27.319C33.8601 26.7464 32.9316 26.7464 32.359 27.319L30.2851 29.3929C28.1618 28.3871 26.2453 27.0293 24.6081 25.3921L20.6073 29.3929C26.3341 35.1196 32.8334 37.9051 35.1241 35.6143L37.8891 32.8493C38.4618 32.2765 38.4618 31.348 37.8891 30.7754Z" fill="#DCF4FF"/>
</svg>
